<svg width="36" height="36" viewBox="0 0 36 36" fill="none" xmlns="http://www.w3.org/2000/svg">
<rect width="36" height="36" rx="12" fill="#E5E5EA"/>
<path d="M14.1319 17.1832L20.5072 11.8705C20.7239 11.6912 21.0028 11.6051 21.2829 11.6311C21.563 11.6571 21.8213 11.7929 22.0014 12.009C22.1815 12.225 22.2686 12.5036 22.2437 12.7838C22.2188 13.064 22.0839 13.3228 21.8685 13.5037L16.4728 17.9999L21.8685 22.496C22.0847 22.6767 22.2204 22.9357 22.2457 23.2163C22.271 23.4969 22.1839 23.7761 22.0035 23.9925C21.8231 24.2089 21.5642 24.3449 21.2836 24.3705C21.0031 24.3962 20.7238 24.3094 20.5072 24.1293L14.1319 18.8165C14.0124 18.7166 13.9162 18.5917 13.8502 18.4506C13.7842 18.3095 13.75 18.1556 13.75 17.9998C13.75 17.8441 13.7842 17.6902 13.8502 17.5491C13.9162 17.408 14.0124 17.2831 14.1319 17.1832Z" fill="#002855"/>
</svg>
