<svg width="20" height="21" viewBox="0 0 20 21" fill="none" xmlns="http://www.w3.org/2000/svg">
<path d="M3.33325 8V14.1667C3.33325 15.8235 4.6764 17.1667 6.33325 17.1667H13.6666C15.3234 17.1667 16.6666 15.8235 16.6666 14.1667V8" stroke="#767676" stroke-width="1.5"/>
<path d="M10 3.83333H16.0524C16.3384 3.83333 16.6034 3.98691 16.7505 4.23792L18.2161 6.73791C18.5417 7.29335 18.1508 8 17.5179 8H13.3645C12.7925 8 12.2625 7.69283 11.9682 7.19082L10 3.83333Z" stroke="#767676" stroke-width="1.5"/>
<path d="M10.0001 3.83333H3.94769C3.6617 3.83333 3.39668 3.98691 3.24954 4.23792L1.78403 6.73791C1.45843 7.29335 1.84933 8 2.48218 8H6.63561C7.20759 8 7.73763 7.69283 8.03191 7.19082L10.0001 3.83333Z" stroke="#767676" stroke-width="1.5"/>
</svg>
