<svg width="36" height="36" viewBox="0 0 36 36" fill="none" xmlns="http://www.w3.org/2000/svg">
<g opacity="0.8">
 <rect width="36" height="36" rx="12" fill="#E5E5EA"/>
<path d="M21.8681 17.1832L15.4928 11.8705C15.2761 11.6912 14.9972 11.6051 14.7171 11.6311C14.437 11.6571 14.1787 11.7929 13.9986 12.009C13.8185 12.225 13.7314 12.5036 13.7563 12.7838C13.7812 13.064 13.9161 13.3228 14.1315 13.5037L19.5272 17.9999L14.1315 22.496C13.9153 22.6767 13.7796 22.9357 13.7543 23.2163C13.729 23.4969 13.8161 23.7761 13.9965 23.9925C14.1769 24.2089 14.4358 24.3449 14.7164 24.3705C14.9969 24.3962 15.2762 24.3094 15.4928 24.1293L21.8681 18.8165C21.9876 18.7166 22.0838 18.5917 22.1498 18.4506C22.2158 18.3095 22.25 18.1556 22.25 17.9998C22.25 17.8441 22.2158 17.6902 22.1498 17.5491C22.0838 17.408 21.9876 17.2831 21.8681 17.1832Z" fill="#002855"/>
</g>
</svg>
