<svg width="20" height="21" viewBox="0 0 20 21" fill="none" xmlns="http://www.w3.org/2000/svg">
<path fill-rule="evenodd"  clip-rule="evenodd" d="M2.5 4.875C1.69459 4.875 1.04167 5.52792 1.04167 6.33333V8C1.04167 8.80541 1.69459 9.45833 2.5 9.45833H4.16667C4.97208 9.45833 5.625 8.80541 5.625 8V6.33333C5.625 5.52792 4.97208 4.875 4.16667 4.875H2.5ZM2.5 11.5417C1.69459 11.5417 1.04167 12.1946 1.04167 13V14.6667C1.04167 15.4721 1.69459 16.125 2.5 16.125H4.16667C4.97208 16.125 5.625 15.4721 5.625 14.6667V13C5.625 12.1946 4.97208 11.5417 4.16667 11.5417H2.5ZM7.70833 5.5C7.70833 5.15482 7.98816 4.875 8.33333 4.875H13.3333C13.6785 4.875 13.9583 5.15482 13.9583 5.5C13.9583 5.84518 13.6785 6.125 13.3333 6.125H8.33333C7.98816 6.125 7.70833 5.84518 7.70833 5.5ZM8.33333 11.5417C7.98816 11.5417 7.70833 11.8215 7.70833 12.1667C7.70833 12.5118 7.98816 12.7917 8.33333 12.7917H13.3333C13.6785 12.7917 13.9583 12.5118 13.9583 12.1667C13.9583 11.8215 13.6785 11.5417 13.3333 11.5417H8.33333ZM7.70833 8.83333C7.70833 8.48816 7.98816 8.20833 8.33333 8.20833H18.3333C18.6785 8.20833 18.9583 8.48816 18.9583 8.83333C18.9583 9.17851 18.6785 9.45833 18.3333 9.45833H8.33333C7.98816 9.45833 7.70833 9.17851 7.70833 8.83333ZM8.33333 14.875C7.98816 14.875 7.70833 15.1548 7.70833 15.5C7.70833 15.8452 7.98816 16.125 8.33333 16.125H18.3333C18.6785 16.125 18.9583 15.8452 18.9583 15.5C18.9583 15.1548 18.6785 14.875 18.3333 14.875H8.33333Z" stroke="currentColor"/>
</svg>
