<svg width="20" height="21"  viewBox="0 0 20 21" fill="none" xmlns="http://www.w3.org/2000/svg">
<path d="M11.6666 16.3333V6.33333M11.6666 16.3333H13.3333M11.6666 16.3333H7.49996M11.6666 6.33333C11.6666 4.49238 10.1742 3 8.33329 3H4.99996C3.15901 3 1.66663 4.49238 1.66663 6.33333V13C1.66663 14.5544 2.73052 15.8602 4.16983 16.2291M11.6666 6.33333H14.3409C14.7643 6.33333 15.1719 6.4945 15.4808 6.7841L17.8065 8.96449C18.1426 9.27957 18.3333 9.7197 18.3333 10.1804V14.6667C18.3333 15.5871 17.5871 16.3333 16.6666 16.3333M16.6666 16.3333C16.6666 17.2538 15.9204 18 15 18C14.0795 18 13.3333 17.2538 13.3333 16.3333M16.6666 16.3333C16.6666 15.4129 15.9204 14.6667 15 14.6667C14.0795 14.6667 13.3333 15.4129 13.3333 16.3333M7.49996 16.3333C7.49996 17.2538 6.75377 18 5.83329 18C4.91282 18 4.16663 17.2538 4.16663 16.3333C4.16663 16.2983 4.1677 16.2636 4.16983 16.2291M7.49996 16.3333C7.49996 15.4129 6.75377 14.6667 5.83329 14.6667C4.94781 14.6667 4.22361 15.3572 4.16983 16.2291" stroke="currentColor" stroke-width="1.5"/>
</svg>




