<svg width="94" height="24" viewBox="0 0 94 24" fill="none" xmlns="http://www.w3.org/2000/svg">
<path d="M-1.0252e-05 12.0001C-1.0252e-05 13.4729 1.1939 14.6668 2.66666 14.6668C4.13942 14.6668 5.33332 13.4729 5.33332 12.0001C5.33332 10.5274 4.13942 9.33346 2.66666 9.33346C1.1939 9.33346 -1.0252e-05 10.5274 -1.0252e-05 12.0001ZM2.66666 12.5001H4.28332V11.5001H2.66666V12.5001ZM7.51666 12.5001H10.75V11.5001H7.51666V12.5001ZM13.9833 12.5001H17.2167V11.5001H13.9833V12.5001ZM20.45 12.5001H23.6833V11.5001H20.45V12.5001ZM26.9167 12.5001H30.15V11.5001H26.9167V12.5001ZM33.3833 12.5001H35V11.5001H33.3833V12.5001Z" fill="#E0E0E0"/>
<path fill-rule="evenodd" clip-rule="evenodd" d="M41 3.06226H44.5C46.7091 3.06226 48.5 4.85312 48.5 7.06226V19.0623H45.5C45.5 17.1293 43.933 15.5623 42 15.5623C40.3438 15.5623 38.9571 16.7119 38.5932 18.2574C37.6255 17.5273 37 16.3679 37 15.0623V7.06226C37 4.85312 38.7909 3.06226 41 3.06226ZM44 19.0623C44 20.1668 43.1046 21.0623 42 21.0623C40.8954 21.0623 40 20.1668 40 19.0623C40 19.0203 40.0013 18.9786 40.0038 18.9372C40.0684 17.8909 40.9374 17.0623 42 17.0623C43.1046 17.0623 44 17.9577 44 19.0623ZM55 19.0623C55 20.1668 54.1046 21.0623 53 21.0623C51.8954 21.0623 51 20.1668 51 19.0623C51 17.9577 51.8954 17.0623 53 17.0623C54.1046 17.0623 55 17.9577 55 19.0623ZM53 15.5623C54.7222 15.5623 56.1538 16.8061 56.4456 18.4443C56.7891 18.0852 57 17.5984 57 17.0623V11.6787C57 11.1259 56.7712 10.5977 56.3679 10.2196L53.577 7.60318C53.2063 7.25566 52.7172 7.06226 52.2091 7.06226H50V17.2585C50.6124 16.242 51.7268 15.5623 53 15.5623Z" fill="#F38630"/>
<path d="M88.6667 12.0001C88.6667 13.4729 89.8606 14.6668 91.3333 14.6668C92.8061 14.6668 94 13.4729 94 12.0001C94 10.5274 92.8061 9.33346 91.3333 9.33346C89.8606 9.33346 88.6667 10.5274 88.6667 12.0001ZM59 12.5001H60.6167V11.5001H59V12.5001ZM63.85 12.5001H67.0833V11.5001H63.85V12.5001ZM70.3167 12.5001H73.55V11.5001H70.3167V12.5001ZM76.7833 12.5001H80.0167V11.5001H76.7833V12.5001ZM83.25 12.5001H86.4833V11.5001H83.25V12.5001ZM89.7167 12.5001H91.3333V11.5001H89.7167V12.5001Z" fill="#E0E0E0"/>
</svg>
