<svg width="20" height="21" viewBox="0 0 20 21" fill="none" xmlns="http://www.w3.org/2000/svg">
<path d="M12.5 9.25V8.83333C12.5 7.45262 13.6193 6.33333 15 6.33333M17.5 9.25V8.83333C17.5 7.45262 16.3807 6.33333 15 6.33333M15 6.33333C15.9205 6.33333 16.6667 5.58714 16.6667 4.66667C16.6667 3.74619 15.9205 3 15 3C14.0795 3 13.3333 3.74619 13.3333 4.66667C13.3333 5.58714 14.0795 6.33333 15 6.33333ZM17.5 14.9617V16.3333C17.5 17.2538 16.7538 18 15.8333 18C8.46954 18 2.5 12.0305 2.5 4.66667C2.5 3.74619 3.24619 3 4.16667 3H5.53828C6.21979 3 6.83263 3.41492 7.08574 4.04768L7.76379 5.7428C8.08571 6.54761 7.73698 7.46484 6.96168 7.85249L6.66667 8C6.66667 8 7.08333 10.0833 8.75 11.75C10.4167 13.4167 12.5 13.8333 12.5 13.8333L12.6475 13.5383C13.0352 12.763 13.9524 12.4143 14.7572 12.7362L16.4523 13.4143C17.0851 13.6674 17.5 14.2802 17.5 14.9617Z" stroke="#767676" stroke-width="1.5" stroke-linecap="round" stroke-linejoin="round"/>
</svg>
