<svg width="20" height="21" viewBox="0 0 20 21" fill="none" xmlns="http://www.w3.org/2000/svg">
<ellipse cx="10" cy="14.25" rx="5" ry="2.08333" stroke="currentColor" stroke-width="1.5" stroke-linejoin="round"/>
<ellipse cx="10" cy="7.16666" rx="2.5" ry="2.5" stroke="currentColor" stroke-width="1.5" stroke-linejoin="round"/>
<path fill-rule="evenodd" clip-rule="evenodd" d="M5.6288 11.4185C4.48481 11.4392 3.42291 11.6327 2.60847 11.9585C2.17917 12.1302 1.78142 12.3534 1.47873 12.6397C1.17446 12.9274 0.916626 13.3305 0.916626 13.8333C0.916626 14.3361 1.17446 14.7392 1.47873 15.027C1.78142 15.3133 2.17917 15.5365 2.60847 15.7082C3.07808 15.8961 3.62997 16.0399 4.23243 16.132C3.6969 15.6139 3.37573 15.017 3.33721 14.3797C3.27789 14.359 3.22064 14.3375 3.16556 14.3155C2.84084 14.1856 2.6284 14.0497 2.50939 13.9372C2.45646 13.8871 2.4324 13.8524 2.42194 13.8333C2.4324 13.8143 2.45646 13.7796 2.50939 13.7295C2.6284 13.617 2.84084 13.4811 3.16556 13.3512C3.2971 13.2986 3.44101 13.2493 3.59593 13.2043C3.95752 12.5024 4.67395 11.8853 5.6288 11.4185ZM2.4145 13.8508C2.41437 13.8508 2.41461 13.8495 2.41562 13.8467C2.41513 13.8495 2.41463 13.8508 2.4145 13.8508ZM2.41562 13.8199C2.41461 13.8172 2.41437 13.8159 2.4145 13.8159C2.41463 13.8159 2.41513 13.8172 2.41562 13.8199Z" fill="currentColor"/>
<path fill-rule="evenodd" clip-rule="evenodd" d="M16.6628 14.3797C16.6243 15.017 16.3031 15.6139 15.7676 16.132C16.37 16.0399 16.9219 15.8961 17.3915 15.7082C17.8208 15.5365 18.2186 15.3133 18.5213 15.027C18.8256 14.7392 19.0834 14.3361 19.0834 13.8333C19.0834 13.3305 18.8256 12.9274 18.5213 12.6397C18.2186 12.3534 17.8208 12.1302 17.3915 11.9585C16.5771 11.6327 15.5152 11.4392 14.3712 11.4185C15.3261 11.8853 16.0425 12.5024 16.4041 13.2043C16.559 13.2493 16.7029 13.2986 16.8345 13.3512C17.1592 13.4811 17.3716 13.617 17.4906 13.7295C17.5436 13.7796 17.5676 13.8143 17.5781 13.8333C17.5676 13.8524 17.5436 13.8871 17.4906 13.9372C17.3716 14.0497 17.1592 14.1856 16.8345 14.3155C16.7794 14.3375 16.7221 14.359 16.6628 14.3797ZM17.5855 13.8508C17.5854 13.8508 17.5849 13.8495 17.5844 13.8467C17.5854 13.8495 17.5856 13.8508 17.5855 13.8508ZM17.5844 13.8199C17.5849 13.8172 17.5854 13.8159 17.5855 13.8159C17.5856 13.8159 17.5854 13.8172 17.5844 13.8199Z" fill="currentColor"/>
<path fill-rule="evenodd" clip-rule="evenodd" d="M13.8142 8.84647C13.6078 9.31448 13.3177 9.73733 12.963 10.0961C13.3174 10.3 13.7284 10.4167 14.1666 10.4167C15.5013 10.4167 16.5833 9.3347 16.5833 8.00001C16.5833 6.66532 15.5013 5.58334 14.1666 5.58334C14.0638 5.58334 13.9624 5.58977 13.863 5.60224C14.0489 6.06097 14.1556 6.56035 14.1658 7.08334C14.1661 7.08334 14.1664 7.08334 14.1666 7.08334C14.6729 7.08334 15.0833 7.49375 15.0833 8.00001C15.0833 8.50627 14.6729 8.91668 14.1666 8.91668C14.0417 8.91668 13.9227 8.8917 13.8142 8.84647Z" fill="currentColor"/>
<path fill-rule="evenodd" clip-rule="evenodd" d="M6.13695 5.60224C6.03749 5.58977 5.93614 5.58334 5.83329 5.58334C4.4986 5.58334 3.41663 6.66532 3.41663 8.00001C3.41663 9.3347 4.4986 10.4167 5.83329 10.4167C6.27153 10.4167 6.68252 10.3 7.03691 10.0961C6.6822 9.73733 6.39217 9.31448 6.18576 8.84647C6.07725 8.8917 5.95819 8.91668 5.83329 8.91668C5.32703 8.91668 4.91663 8.50627 4.91663 8.00001C4.91663 7.49375 5.32703 7.08334 5.83329 7.08334C5.83357 7.08334 5.83384 7.08334 5.83411 7.08334C5.84437 6.56035 5.95099 6.06097 6.13695 5.60224Z" fill="currentColor"/>
</svg>
